<svg xmlns="http://www.w3.org/2000/svg" width="42" height="37"><style/><path id="Forma 1" d="M39.85 0h-13.1c-1.19 0-2.15.96-2.15 2.15v13.07c0 1.19.96 2.15 2.15 2.15h6.27c-.08 3.42-.88 6.16-2.39 8.22-1.19 1.62-2.99 2.97-5.4 4.03a2.15 2.15 0 00-1.06 2.89l1.55 3.26a2.15 2.15 0 002.8 1.05c2.85-1.23 5.26-2.78 7.23-4.68 2.39-2.3 4.03-4.91 4.92-7.82.89-2.9 1.33-6.87 1.33-11.9V2.15C42 .96 41.03 0 39.85 0zM4.57 36.81c2.82-1.22 5.21-2.78 7.19-4.67 2.41-2.3 4.06-4.9 4.95-7.79.89-2.88 1.33-6.86 1.33-11.93V2.15C18.04.96 17.08 0 15.89 0H2.79C1.6 0 .64.96.64 2.15v13.07c0 1.19.96 2.15 2.15 2.15h6.27c-.08 3.42-.88 6.16-2.39 8.22-1.18 1.62-2.99 2.97-5.39 4.03a2.145 2.145 0 00-1.07 2.89l1.54 3.25c.5 1.05 1.75 1.52 2.82 1.05z" fill="#ffb700"/></svg>